<?xml version="1.0" standalone="no"?>
<!DOCTYPE svg PUBLIC "-//W3C//DTD SVG 20010904//EN"
 "http://www.w3.org/TR/2001/REC-SVG-20010904/DTD/svg10.dtd">
<svg version="1.0" xmlns="http://www.w3.org/2000/svg"
 width="135.000000pt" height="159.000000pt" viewBox="0 0 135.000000 159.000000"
 preserveAspectRatio="xMidYMid meet">

<g transform="translate(0.000000,159.000000) scale(0.100000,-0.100000)"
fill="#000000" stroke="none">
<path d="M831 1368 c-118 -299 -145 -365 -153 -375 -6 -7 -19 -13 -29 -13 -11
0 -19 -4 -19 -10 0 -6 30 -10 70 -10 40 0 70 4 70 10 0 6 -11 10 -25 10 -34 0
-39 18 -20 63 l16 38 66 -3 65 -3 19 -47 19 -48 -30 0 c-17 0 -30 -4 -30 -10
0 -6 42 -10 105 -10 63 0 105 4 105 10 0 6 -10 10 -23 10 -21 0 -30 20 -97
205 -44 119 -80 205 -88 205 -7 0 -16 -10 -21 -22z m8 -202 c12 -32 20 -61 17
-63 -2 -2 -26 -3 -54 -1 l-50 3 26 68 c13 38 28 65 32 60 4 -4 17 -34 29 -67z"/>
<path d="M60 1370 c0 -5 11 -10 25 -10 l25 0 0 -190 0 -190 -25 0 c-14 0 -25
-4 -25 -10 0 -6 67 -10 180 -10 l180 0 0 33 c0 17 3 49 6 70 5 30 4 37 -10 37
-9 0 -16 -8 -16 -17 0 -25 -34 -74 -62 -89 -13 -8 -47 -13 -75 -14 l-53 0 0
90 c0 84 1 90 20 90 24 0 70 -42 70 -65 0 -8 5 -15 10 -15 6 0 10 35 10 85 0
50 -4 85 -10 85 -5 0 -10 -5 -10 -10 0 -19 -48 -60 -70 -60 -19 0 -20 6 -20
90 l0 90 48 0 c58 0 104 -26 122 -69 19 -47 30 -37 30 29 l0 60 -175 0 c-110
0 -175 -4 -175 -10z"/>
<path d="M497 1042 c-33 -36 -8 -92 40 -92 25 0 53 30 53 57 0 46 -62 69 -93
35z"/>
<path d="M1117 1042 c-33 -36 -8 -92 40 -92 25 0 53 30 53 57 0 46 -62 69 -93
35z"/>
<path d="M175 626 c-62 -27 -115 -125 -115 -211 0 -84 49 -169 117 -204 28
-14 81 -13 118 3 22 9 35 10 47 2 23 -14 25 -10 30 57 3 42 1 57 -9 57 -7 0
-15 -11 -19 -25 -8 -33 -69 -85 -99 -85 -54 0 -70 61 -63 249 3 90 7 113 22
130 36 40 96 19 127 -46 11 -23 25 -43 30 -43 5 0 9 27 9 60 0 46 -3 60 -14
60 -8 0 -18 -4 -21 -10 -4 -6 -17 -4 -35 5 -35 18 -85 19 -125 1z"/>
<path d="M855 626 c-44 -19 -82 -68 -100 -128 -18 -61 -18 -81 -4 -148 24
-113 129 -177 224 -136 22 9 35 10 47 2 23 -14 25 -10 30 57 3 42 1 57 -9 57
-7 0 -15 -11 -19 -25 -8 -33 -69 -85 -99 -85 -13 0 -30 7 -38 15 -20 19 -30
121 -25 244 3 80 7 104 22 120 36 40 96 19 127 -46 11 -23 25 -43 30 -43 5 0
9 27 9 60 0 46 -3 60 -14 60 -8 0 -18 -4 -21 -10 -4 -6 -17 -4 -35 5 -35 18
-85 19 -125 1z"/>
<path d="M437 292 c-33 -36 -8 -92 40 -92 25 0 53 30 53 57 0 46 -62 69 -93
35z"/>
<path d="M1117 292 c-33 -36 -8 -92 40 -92 25 0 53 30 53 57 0 46 -62 69 -93
35z"/>
</g>
</svg>
